<?xml version="1.0" encoding="utf-8"?>
<!-- Generator: Adobe Illustrator 25.0.1, SVG Export Plug-In . SVG Version: 6.00 Build 0)  -->
<svg version="1.1" id="Layer_1" xmlns="http://www.w3.org/2000/svg" xmlns:xlink="http://www.w3.org/1999/xlink" x="0px" y="0px"
	 viewBox="0 0 310.8 84.5" style="enable-background:new 0 0 310.8 84.5;" xml:space="preserve">
<style type="text/css">
	.st0{fill:#FFFFFF;}
	.st1{fill:#C60000;}
	.st2{fill:none;stroke:#FFFFFF;stroke-miterlimit:10;}
</style>
<path class="st0" d="M0,1.3h38v8H9.2v13.8h26.6v7.6H9.2v15.5h29.3v8H0V1.3z"/>
<path class="st0" d="M53.3,36.5c0,8.1,6,11.3,13.4,11.3c8.1,0,11.2-4,11.2-8s-2.2-5.7-4.4-6.5c-3.7-1.4-8.5-2.4-15.8-4.4
	c-9-2.4-11.7-7.9-11.7-13.4C46.1,5,55.9,0,65.4,0c11,0,20.3,5.8,20.3,16.9h-9.3c-0.4-6.8-5-9.3-11.4-9.3c-4.3,0-9.7,1.6-9.7,6.9
	c0,3.7,2.5,5.8,6.3,6.8c0.8,0.2,12.5,3.2,15.2,4.1c6.1,1.7,10.3,7.2,10.3,13.5c0,11.8-10.5,16.6-21,16.6c-12.1,0-21.8-5.8-22.1-18.9
	H53.3z"/>
<path class="st0" d="M96.7,1.3h38v8H106v13.8h26.7v7.6H106v15.5h29.3v8H96.7V1.3z"/>
<path class="st0" d="M144.5,1.3h9.8l24.1,38.9h0.1V1.3h8.8v52.8h-9.8l-24-38.8h-0.2v38.8h-8.8V1.3z"/>
<path class="st0" d="M194.5,1.3h42.8v8h-16.8v44.8h-9.3V9.3h-16.7V1.3z"/>
<path class="st1" d="M244.5,1.3h9.2v52.8h-9.2V1.3z"/>
<path class="st0" d="M280.6,1.3h9.8l20.4,52.8h-9.9l-5-14h-21.1l-5,14h-9.5L280.6,1.3z M277.4,33.1h16.1l-7.9-22.7h-0.2L277.4,33.1z
	"/>
<path class="st0" d="M105.3,68.5c3.4,0,5.5,0.7,7,2.1c1.3,1.4,2.1,3.2,2,5.1c0.1,2.5-1,4.9-3,6.5c-1.8,1.4-4.2,1.9-7.1,1.9h-5.6
	v-0.7c2.1-0.2,2.2-0.4,2.2-2.3v-9.6c0-2.1-0.3-2.2-2.2-2.3v-0.7H105.3z M102.9,80.9c0,1.8,0.8,2.3,2.6,2.3c4.3,0,6.5-3,6.5-7.2
	c0-2.6-0.9-4.6-2.8-5.8c-1.2-0.7-2.7-1.1-4.1-1c-0.7-0.1-1.3,0-1.9,0.3c-0.2,0.1-0.3,0.4-0.3,1.3V80.9z"/>
<path class="st0" d="M124.5,84.1v-0.7c1.6-0.2,1.8-0.4,1.4-1.3s-0.8-2.1-1.3-3.7h-5.2c-0.4,1.1-0.8,2-1.1,3c-0.5,1.6-0.2,1.8,1.8,2
	v0.7h-5.5v-0.7c1.5-0.2,1.9-0.4,2.7-2.5l5-12.6l0.8-0.1c1.5,4.1,3.2,8.6,4.7,12.8c0.8,2.1,1,2.3,2.7,2.5v0.7L124.5,84.1z
	 M122.1,71.3c-0.8,2.1-1.6,4.2-2.3,6.2h4.5L122.1,71.3z"/>
<path class="st0" d="M149.3,69.2c-1.5,0.2-2,0.4-2.1,1.5c0,0.8-0.1,1.8-0.1,4v9.6h-0.9l-10.3-12.5v6c0,2.2,0.1,3.2,0.1,3.9
	c0.1,1.2,0.6,1.6,2.4,1.7v0.7h-5.8v-0.7c1.5-0.1,2.1-0.5,2.2-1.7c0.1-0.8,0.1-1.8,0.1-4v-6.2c0.1-0.6-0.1-1.1-0.5-1.6
	c-0.4-0.6-1-0.7-2.1-0.9v-0.7h3.6L146,80.6v-5.9c0-1.3,0-2.7-0.1-4c-0.1-1.1-0.6-1.4-2.5-1.5v-0.7h5.9V69.2z"/>
<path class="st0" d="M165.7,80.3c-0.4,1.2-0.8,2.5-1.3,3.6c-1.4,0.3-2.9,0.5-4.4,0.6c-5.7,0-8.7-3.8-8.7-8c0-4.9,3.7-8.3,9.1-8.3
	c1.5,0,3,0.2,4.5,0.6c0.1,1.1,0.3,2.5,0.5,3.7l-0.8,0.2c-0.5-1.6-1-2.6-2.3-3.1c-0.8-0.3-1.7-0.5-2.5-0.4c-4,0-6.1,2.9-6.1,6.9
	c0,4.6,2.4,7.6,6.3,7.6c2.4,0,3.6-1.1,4.9-3.5L165.7,80.3z"/>
<path class="st0" d="M168.3,84.1v-0.7c2-0.2,2.2-0.3,2.2-2.3v-9.5c0-2.1-0.2-2.2-2.2-2.4v-0.7h6.4v0.7c-2,0.2-2.2,0.3-2.2,2.4v9.5
	c0,2.1,0.2,2.1,2.2,2.3v0.7L168.3,84.1z"/>
<path class="st0" d="M194.5,69.2c-1.5,0.2-2,0.4-2.1,1.5c0,0.8-0.1,1.8-0.1,4v9.6h-0.9l-10.3-12.5v6c0,2.2,0.1,3.2,0.1,3.9
	c0,1.2,0.6,1.6,2.4,1.7v0.7h-5.8v-0.7c1.5-0.1,2.1-0.5,2.2-1.7c0.1-0.8,0.1-1.8,0.1-4v-6.2c0.1-0.6-0.1-1.1-0.5-1.6
	c-0.5-0.6-1-0.7-2.1-0.9v-0.7h3.6l10.2,12.1v-5.9c0-2.2,0-3.3-0.1-4c-0.1-1.1-0.6-1.4-2.6-1.5v-0.7h5.9V69.2z"/>
<path class="st0" d="M212.2,77.5c-1.5,0.2-1.6,0.3-1.6,1.8v2c0,0.8,0,1.5,0.1,2.3c-1.8,0.5-3.6,0.8-5.4,0.9c-5.4,0-8.8-3.4-8.8-8.2
	c0-5.1,4.1-8.1,8.9-8.1c1.7,0,3.4,0.2,5,0.6c0.1,0.9,0.2,2.3,0.4,3.9l-0.7,0.2c-0.6-2-1.3-2.9-2.8-3.4c-0.7-0.2-1.5-0.3-2.2-0.3
	c-3.7,0-6.1,2.5-6.1,6.9c0,3.8,2,7.6,6.6,7.6c0.7,0,1.4-0.1,2-0.4c0.5-0.3,0.8-0.6,0.8-1.5v-2c0-1.8-0.2-1.9-2.5-2.1v-0.7h6.2
	L212.2,77.5z"/>
<line class="st2" x1="19.2" y1="76.8" x2="91.7" y2="76.8"/>
<line class="st2" x1="219.2" y1="76.8" x2="291.7" y2="76.8"/>
</svg>
